<?xml version="1.0" encoding="utf-8"?>
<!-- Generator: Adobe Illustrator 13.0.0, SVG Export Plug-In . SVG Version: 6.00 Build 14948)  -->
<!DOCTYPE svg PUBLIC "-//W3C//DTD SVG 1.0//EN" "http://www.w3.org/TR/2001/REC-SVG-20010904/DTD/svg10.dtd">
<svg version="1.0" id="Layer_1" xmlns="http://www.w3.org/2000/svg" xmlns:xlink="http://www.w3.org/1999/xlink" x="0px" y="0px"
	 width="32px" height="32px" viewBox="0 0 32 32" enable-background="new 0 0 32 32" xml:space="preserve">
<g id="Bible_1_Link">
	<path fill="none" d="M24.467,17.264c-0.004-0.014-0.091-0.096-0.194-0.177c-0.105-0.082-0.191-0.16-0.191-0.169
		c0-0.008,0.163-0.082,0.362-0.167c0.194-0.08,0.371-0.162,0.388-0.179c0.019-0.018,0.007-0.101-0.02-0.187l-0.055-0.156
		l0.166-0.134c0.091-0.073,0.186-0.154,0.211-0.175c0.038-0.03,0.033-0.051-0.013-0.091c-0.121-0.099-0.628-0.605-0.63-0.626
		c0.002-0.011,0.146-0.094,0.326-0.178c0.18-0.089,0.325-0.17,0.328-0.182c-0.002-0.012-0.099-0.075-0.214-0.146
		c-0.289-0.17-0.312-0.197-0.323-0.386c-0.005-0.086-0.028-0.207-0.06-0.264l-0.047-0.106l-3.111,0.005
		c-2.928,0-3.119,0.003-3.294,0.084c-0.542,0.235-0.878,0.832-0.901,1.593c-0.015,0.346,0.045,0.659,0.174,0.939
		c0.127,0.275,0.137,0.29,0.339,0.502c0.124,0.129,0.223,0.2,0.353,0.261c0.17,0.08,0.339,0.085,3.237,0.087
		c2.536,0.002,3.062-0.007,3.115-0.059C24.447,17.321,24.472,17.282,24.467,17.264z"/>
	<path fill="none" d="M31.288,18.932c0.157-0.063,0.231-0.18,0.231-0.38c0-0.58-0.687-0.623-0.771-0.053
		C30.696,18.815,30.981,19.037,31.288,18.932z"/>
	<path fill="none" d="M25.619,26.173c0.106,0.073,0.223,0.137,0.255,0.137c0.031,0,0.147-0.063,0.252-0.137
		c0.402-0.286-0.02-1.004-0.433-0.75C25.431,25.592,25.39,26.004,25.619,26.173z"/>
	<path fill="none" d="M-3.719-12.635v56.531h56.531v-56.531H-3.719z M46.57,6.15c0.285,0,0.527,0.412,0.401,0.655
		c-0.116,0.211-0.517,0.253-0.707,0.063C46,6.604,46.2,6.15,46.57,6.15z M42.485,2.499c0.379,0.095,0.465,0.475,0.169,0.717
		c-0.285,0.233-0.358,0.233-0.568,0.021C41.726,2.889,42,2.372,42.485,2.499z M29.6,31.201c-0.176,0.164-0.435,0.28-1.283,0.265
		c-0.333,0-0.657-0.018-0.963-0.053c-0.007-0.002-0.014-0.002-0.022-0.003l-0.002-0.001c-0.229-0.027-0.446-0.066-0.645-0.114
		c-1.12-0.277-1.269-0.386-1.36-1.012c-0.036-0.351-0.257-0.515-1.047-0.791c-2.17-0.735-3.715-0.938-6.729-0.956
		c-4.099,0-7.795,0.441-14.578,1.747c-1.654,0.313-3.033,0.533-3.106,0.478c-0.093-0.11,0.808-19.395,0.955-20.442
		c0.074-0.478,0.24-0.607,1.104-0.957l1.011-0.386L2.915,9.822c0,0.478-0.275,4.945-0.588,9.927
		c-0.331,4.963-0.588,9.045-0.588,9.045c0.018,0,0.753-0.166,1.654-0.35c4.761-1.049,10.147-1.673,14.1-1.673
		c4.303,0,7.207,0.81,9.21,2.536c0.694,0.61,0.968,0.752,1.537,0.77c0.067,0,0.133,0.001,0.194,0.002c0.039,0,0.078,0,0.116-0.002
		v0.005c1.056,0.026,1.327,0.171,1.327,0.611C29.877,30.832,29.754,31.063,29.6,31.201z M31.51,31.489
		c-0.099,0-0.297-0.101-0.411-0.227c-0.128-0.114-0.227-0.299-0.227-0.398c0-0.212,0.453-0.651,0.667-0.651
		c0.184,0,0.609,0.468,0.609,0.681C32.148,31.105,31.737,31.489,31.51,31.489z M32.681,25.359c-0.073,0-0.222-0.074-0.306-0.169
		c-0.096-0.084-0.169-0.222-0.169-0.295c0-0.159,0.338-0.486,0.496-0.486c0.137,0,0.453,0.349,0.453,0.507
		C33.155,25.075,32.85,25.359,32.681,25.359z M40.681,21.624c-0.254,0.189-0.316,0.18-0.57-0.073
		c-0.189-0.191-0.199-0.243-0.062-0.444c0.179-0.274,0.451-0.349,0.653-0.18C40.913,21.106,40.902,21.454,40.681,21.624z
		 M46.455,18.078c-0.096,0-0.223-0.054-0.297-0.129c-0.358-0.358,0.063-0.948,0.507-0.716
		C47.035,17.434,46.876,18.078,46.455,18.078z M48.713,8.727c-0.147,0.147-1.088,0.168-8.802,0.168
		c-7.715,0-8.655,0.021-8.803,0.169c-0.222,0.211-0.21,0.39,0.021,0.602c0.18,0.159,0.77,0.18,5.772,0.201
		c5.172,0.031,5.584,0.042,5.689,0.222c0.084,0.126,0.084,0.232,0,0.369c-0.106,0.169-0.644,0.18-8.021,0.232
		c-4.349,0.032-7.969,0.095-8.031,0.138c-0.169,0.105-0.18,0.517-0.011,0.686c0.094,0.095,2.438,0.126,9.899,0.126
		s9.805,0.033,9.9,0.127c0.073,0.074,0.127,0.222,0.127,0.348c0,0.126-0.054,0.274-0.127,0.348
		c-0.096,0.095-3.029,0.127-12.55,0.127c-7.621,0-10.636,0.01-11.829,0.063c-0.074-0.137-0.147-0.263-0.208-0.356
		c-0.116-0.18-0.245-0.327-0.553-0.629c-0.366-0.362-0.423-0.41-0.666-0.539c-0.302-0.162-0.666-0.302-0.93-0.352
		c-0.214-0.046-8.194-0.059-8.517-0.019c-1.487,0.186-2.725,1.591-3.134,3.551c-0.418,2.001,0.104,4.125,1.316,5.358
		c0.136,0.142,0.353,0.326,0.475,0.412c0.4,0.282,0.859,0.473,1.301,0.537c0.229,0.034,8.155,0.028,8.436-0.008
		c0.302-0.035,0.688-0.167,1.022-0.347c0.264-0.142,0.3-0.175,0.72-0.595c0.383-0.386,0.463-0.479,0.606-0.713
		c0.184-0.303,0.524-1.021,0.498-1.049c-0.01-0.008-0.636-0.016-1.39-0.016l-1.371,0.003l-0.122,0.122
		c-0.066,0.066-0.163,0.134-0.215,0.151c-0.148,0.042-7.882,0.028-7.982-0.018c-0.048-0.024-0.15-0.104-0.228-0.182
		c-0.405-0.409-0.723-1.241-0.752-1.962c-0.003-0.14-0.021-0.253-0.04-0.253c-0.013,0-0.018-0.009-0.004-0.022
		c0.014-0.014,0.03-0.116,0.037-0.228c0.004-0.113,0.016-0.257,0.019-0.318c0.022-0.354,0.24-1.041,0.44-1.382
		c0.123-0.213,0.458-0.57,0.555-0.596c0.148-0.039,7.892-0.021,7.99,0.018c0.06,0.023,0.154,0.091,0.214,0.15l0.109,0.109
		l2.76,0.014c1.201,0.035,3.65,0.042,8.655,0.042c9.542,0,9.646,0,9.764,0.211c0.084,0.148,0.084,0.275,0,0.422
		c-0.106,0.211-0.222,0.211-4.867,0.211c-3.07,0-4.822,0.042-4.959,0.105c-0.232,0.126-0.265,0.549-0.063,0.729
		c0.104,0.073,1.857,0.127,5.879,0.136c5.318,0.033,5.741,0.043,5.847,0.223c0.085,0.126,0.085,0.232,0,0.369
		c-0.105,0.169-0.644,0.18-8.021,0.232c-4.349,0.031-7.969,0.096-8.031,0.137c-0.169,0.105-0.18,0.519-0.011,0.687
		c0.095,0.095,2.206,0.127,8.876,0.127c5.827,0,8.812,0.031,8.95,0.105c0.264,0.147,0.264,0.591,0,0.738
		c-0.139,0.063-2.079,0.107-5.595,0.107c-4.749,0-5.393,0.02-5.54,0.168c-0.191,0.179-0.201,0.253-0.105,0.505
		c0.053,0.149,0.369,0.171,2.417,0.171c2.004,0,2.384,0.021,2.521,0.168c0.221,0.211,0.212,0.391-0.021,0.602
		c-0.18,0.158-0.823,0.179-7.05,0.179c-5.192,0-6.892,0.033-6.986,0.127c-0.147,0.147-0.169,0.57-0.031,0.666
		c0.052,0.031,3.439,0.051,7.524,0.051c6.522,0,7.462,0.022,7.663,0.171c0.253,0.179,0.306,0.453,0.104,0.654
		c-0.096,0.095-1.372,0.126-5.097,0.126c-4.688,0-4.993,0.011-5.151,0.19c-0.104,0.104-0.18,0.264-0.18,0.349
		c0,0.39,0.189,0.41,3.167,0.41c3.062,0,3.166,0.021,3.166,0.477c0,0.474-0.031,0.474-4.443,0.474c-4.518,0-4.485,0-4.399,0.548
		l0.03,0.244l2.311,0.031c1.489,0.011,2.364,0.063,2.46,0.138c0.2,0.18,0.169,0.602-0.065,0.728
		c-0.124,0.063-0.99,0.105-2.088,0.105c-1.994,0-2.143,0.031-2.143,0.497c0,0.349,0.307,0.454,1.34,0.454
		c0.961,0,1.193,0.084,1.193,0.421c0,0.096-0.086,0.255-0.19,0.348c-0.158,0.147-0.433,0.18-1.561,0.18h-1.362l-0.502-0.325
		c-0.814-0.427-1.769-0.8-2.862-1.117c-1.36-0.386-1.802-0.424-5.883-0.424c-4.725,0.019-7.721,0.331-11.802,1.25l-1.893,0.44
		v-0.754c0-0.421,0.257-5.421,0.551-11.14C4.146,9.473,4.404,4.583,4.404,4.325c0-0.552,0.22-0.68,2.574-1.489
		c3.971-1.36,7.519-1.985,11.232-1.985c3.694,0,6.452,0.588,9.19,1.931l0.912,0.447c0.475-0.294,0.975-0.475,1.624-0.614
		c0.98-0.2,10.701-0.232,10.903-0.031c0.189,0.189,0.146,0.591-0.074,0.718c-0.128,0.063-1.319,0.105-3.125,0.105h-2.902
		l-0.126,0.264c-0.105,0.221-0.095,0.305,0.063,0.454c0.149,0.158,0.486,0.189,2.365,0.232c2.186,0.053,2.186,0.053,2.216,0.296
		c0.074,0.538,0.021,0.548-3.251,0.548c-2.797,0-3.039,0.011-3.198,0.19c-0.199,0.222-0.222,0.327-0.074,0.549
		c0.086,0.137,0.846,0.169,5.446,0.211c4.95,0.053,5.362,0.064,5.468,0.243c0.085,0.127,0.085,0.232,0,0.37
		c-0.105,0.158-0.442,0.18-3.905,0.232c-2.079,0.031-3.853,0.095-3.915,0.137c-0.17,0.105-0.18,0.517-0.011,0.686
		c0.095,0.095,1.668,0.127,6.427,0.127c5.595,0,6.323,0.021,6.471,0.168c0.095,0.085,0.17,0.232,0.17,0.307
		C48.883,8.493,48.808,8.642,48.713,8.727z M44.281,10.456c-0.171,0.275-0.634,0.296-0.783,0.032
		c-0.169-0.327,0.043-0.664,0.392-0.623C44.248,9.908,44.438,10.204,44.281,10.456z M42.696,14.151
		c-0.168,0.274-0.633,0.296-0.78,0.032c-0.17-0.328,0.043-0.665,0.391-0.622C42.665,13.602,42.855,13.898,42.696,14.151z"/>
	<path fill="none" d="M27.795,22.436c0.242-0.221,0.242-0.38-0.011-0.601c-0.265-0.243-0.623-0.139-0.708,0.211
		C26.95,22.531,27.414,22.784,27.795,22.436z"/>
	<path fill="none" d="M28.724,9.317c0,0.401,0.643,0.591,0.823,0.243c0.063-0.105,0.063-0.295,0.01-0.422
		C29.408,8.726,28.724,8.874,28.724,9.317z"/>
	<path fill="none" d="M30.887,5.201c-0.169,0-0.475,0.285-0.475,0.443c0,0.169,0.326,0.506,0.485,0.506
		c0.073,0,0.212-0.074,0.295-0.168c0.096-0.084,0.17-0.232,0.17-0.306C31.362,5.485,31.077,5.201,30.887,5.201z"/>
	<g id="Dots">

			<linearGradient id="SVGID_1_" gradientUnits="userSpaceOnUse" x1="-1510.4897" y1="850.5107" x2="-1510.4897" y2="851.7871" gradientTransform="matrix(1 0 0 -1 1542 882)">
			<stop  offset="1" style="stop-color:#E32B7D"/>
			<stop  offset="1" style="stop-color:#F0483D"/>
		</linearGradient>
		<path fill="url(#SVGID_1_)" d="M31.539,30.213c-0.214,0-0.667,0.439-0.667,0.651c0,0.1,0.099,0.284,0.227,0.398
			c0.114,0.126,0.313,0.227,0.411,0.227c0.228,0,0.639-0.384,0.639-0.596C32.148,30.681,31.723,30.213,31.539,30.213z"/>

			<linearGradient id="SVGID_2_" gradientUnits="userSpaceOnUse" x1="-1495.4253" y1="854.7217" x2="-1495.4253" y2="881.1542" gradientTransform="matrix(1 0 0 -1 1542 882)">
			<stop  offset="0.2637" style="stop-color:#E32B7D"/>
			<stop  offset="1" style="stop-color:#F0483D"/>
		</linearGradient>
		<path fill="url(#SVGID_2_)" d="M46.57,6.15c-0.37,0-0.57,0.454-0.306,0.718c0.19,0.189,0.591,0.147,0.707-0.063
			C47.098,6.562,46.855,6.15,46.57,6.15z"/>

			<linearGradient id="SVGID_3_" gradientUnits="userSpaceOnUse" x1="-1498.1118" y1="854.7461" x2="-1498.1118" y2="881.1468" gradientTransform="matrix(1 0 0 -1 1542 882)">
			<stop  offset="0.2637" style="stop-color:#E32B7D"/>
			<stop  offset="1" style="stop-color:#F0483D"/>
		</linearGradient>
		<path fill="url(#SVGID_3_)" d="M43.89,9.866c-0.349-0.042-0.56,0.296-0.391,0.623c0.148,0.264,0.611,0.243,0.782-0.032
			C44.438,10.204,44.248,9.908,43.89,9.866z"/>

			<linearGradient id="SVGID_4_" gradientUnits="userSpaceOnUse" x1="-1499.6235" y1="854.7402" x2="-1499.6235" y2="881.1495" gradientTransform="matrix(1 0 0 -1 1542 882)">
			<stop  offset="0.2637" style="stop-color:#E32B7D"/>
			<stop  offset="1" style="stop-color:#F0483D"/>
		</linearGradient>
		<path fill="url(#SVGID_4_)" d="M42.485,2.499c-0.485-0.127-0.76,0.39-0.399,0.739c0.21,0.211,0.283,0.211,0.568-0.021
			C42.95,2.974,42.864,2.594,42.485,2.499z"/>

			<linearGradient id="SVGID_5_" gradientUnits="userSpaceOnUse" x1="-1499.6953" y1="854.7441" x2="-1499.6953" y2="881.1454" gradientTransform="matrix(1 0 0 -1 1542 882)">
			<stop  offset="0.2637" style="stop-color:#E32B7D"/>
			<stop  offset="1" style="stop-color:#F0483D"/>
		</linearGradient>
		<path fill="url(#SVGID_5_)" d="M42.307,13.561c-0.348-0.043-0.561,0.294-0.391,0.622c0.147,0.264,0.612,0.243,0.78-0.032
			C42.855,13.898,42.665,13.602,42.307,13.561z"/>

			<linearGradient id="SVGID_6_" gradientUnits="userSpaceOnUse" x1="-1509.3193" y1="854.7402" x2="-1509.3193" y2="881.153" gradientTransform="matrix(1 0 0 -1 1542 882)">
			<stop  offset="0.2637" style="stop-color:#E32B7D"/>
			<stop  offset="1" style="stop-color:#F0483D"/>
		</linearGradient>
		<path fill="url(#SVGID_6_)" d="M32.702,24.409c-0.158,0-0.496,0.327-0.496,0.486c0,0.073,0.073,0.211,0.169,0.295
			c0.084,0.096,0.232,0.169,0.306,0.169c0.17,0,0.475-0.284,0.475-0.443C33.155,24.758,32.839,24.409,32.702,24.409z"/>

			<linearGradient id="SVGID_7_" gradientUnits="userSpaceOnUse" x1="-1501.5952" y1="854.7363" x2="-1501.5952" y2="881.1633" gradientTransform="matrix(1 0 0 -1 1542 882)">
			<stop  offset="0.2637" style="stop-color:#E32B7D"/>
			<stop  offset="1" style="stop-color:#F0483D"/>
		</linearGradient>
		<path fill="url(#SVGID_7_)" d="M40.702,20.927c-0.202-0.169-0.475-0.095-0.653,0.18c-0.138,0.201-0.128,0.253,0.062,0.444
			c0.254,0.253,0.316,0.263,0.57,0.073C40.902,21.454,40.913,21.106,40.702,20.927z"/>

			<linearGradient id="SVGID_8_" gradientUnits="userSpaceOnUse" x1="-1495.5522" y1="854.7344" x2="-1495.5522" y2="881.1583" gradientTransform="matrix(1 0 0 -1 1542 882)">
			<stop  offset="0.2637" style="stop-color:#E32B7D"/>
			<stop  offset="1" style="stop-color:#F0483D"/>
		</linearGradient>
		<path fill="url(#SVGID_8_)" d="M46.665,17.233c-0.443-0.232-0.865,0.357-0.507,0.716c0.074,0.075,0.201,0.129,0.297,0.129
			C46.876,18.078,47.035,17.434,46.665,17.233z"/>
	</g>
	<g>
		<path fill="none" d="M25.619,26.173c0.106,0.073,0.223,0.137,0.255,0.137c0.031,0,0.147-0.063,0.252-0.137
			c0.402-0.286-0.02-1.004-0.433-0.75C25.431,25.592,25.39,26.004,25.619,26.173z"/>
		<path fill="none" d="M27.795,22.436c0.242-0.221,0.242-0.38-0.011-0.601c-0.265-0.243-0.623-0.139-0.708,0.211
			C26.95,22.531,27.414,22.784,27.795,22.436z"/>
		<path fill="none" d="M31.288,18.932c0.157-0.063,0.231-0.18,0.231-0.38c0-0.58-0.687-0.623-0.771-0.053
			C30.696,18.815,30.981,19.037,31.288,18.932z"/>
		<path fill="none" d="M30.887,5.201c-0.169,0-0.475,0.285-0.475,0.443c0,0.169,0.326,0.506,0.485,0.506
			c0.073,0,0.212-0.074,0.295-0.168c0.096-0.084,0.17-0.232,0.17-0.306C31.362,5.485,31.077,5.201,30.887,5.201z"/>
		<path fill="none" d="M24.467,17.264c-0.004-0.014-0.091-0.096-0.194-0.177c-0.105-0.082-0.191-0.16-0.191-0.169
			c0-0.008,0.163-0.082,0.362-0.167c0.194-0.08,0.371-0.162,0.388-0.179c0.019-0.018,0.007-0.101-0.02-0.187l-0.055-0.156
			l0.166-0.134c0.091-0.073,0.186-0.154,0.211-0.175c0.038-0.03,0.033-0.051-0.013-0.091c-0.121-0.099-0.628-0.605-0.63-0.626
			c0.002-0.011,0.146-0.094,0.326-0.178c0.18-0.089,0.325-0.17,0.328-0.182c-0.002-0.012-0.099-0.075-0.214-0.146
			c-0.289-0.17-0.312-0.197-0.323-0.386c-0.005-0.086-0.028-0.207-0.06-0.264l-0.047-0.106l-3.111,0.005
			c-2.928,0-3.119,0.003-3.294,0.084c-0.542,0.235-0.878,0.832-0.901,1.593c-0.015,0.346,0.045,0.659,0.174,0.939
			c0.127,0.275,0.137,0.29,0.339,0.502c0.124,0.129,0.223,0.2,0.353,0.261c0.17,0.08,0.339,0.085,3.237,0.087
			c2.536,0.002,3.062-0.007,3.115-0.059C24.447,17.321,24.472,17.282,24.467,17.264z"/>
		<path fill="none" d="M28.724,9.317c0,0.401,0.643,0.591,0.823,0.243c0.063-0.105,0.063-0.295,0.01-0.422
			C29.408,8.726,28.724,8.874,28.724,9.317z"/>

			<linearGradient id="SVGID_9_" gradientUnits="userSpaceOnUse" x1="-1527.1333" y1="850.5332" x2="-1527.1333" y2="873.0234" gradientTransform="matrix(1 0 0 -1 1542 882)">
			<stop  offset="0.5659" style="stop-color:#E32B7D"/>
			<stop  offset="1" style="stop-color:#EB3D54"/>
		</linearGradient>
		<path fill="url(#SVGID_9_)" d="M28.55,30.082v-0.005c-0.038,0.002-0.077,0.002-0.116,0.003c-0.062-0.002-0.127-0.002-0.194-0.003
			c-0.569-0.018-0.842-0.159-1.537-0.769c-2.003-1.728-4.907-2.537-9.21-2.537c-3.952,0-9.339,0.624-14.1,1.673
			c-0.901,0.184-1.636,0.35-1.654,0.35c0,0,0.257-4.082,0.588-9.045c0.313-4.981,0.588-9.449,0.588-9.927l0.018-0.846L1.922,9.362
			c-0.864,0.35-1.029,0.479-1.104,0.957c-0.147,1.047-1.048,20.333-0.955,20.442c0.074,0.057,1.452-0.165,3.106-0.478
			c6.783-1.306,10.479-1.747,14.578-1.747c3.016,0.019,4.56,0.222,6.729,0.956c0.79,0.276,1.011,0.44,1.047,0.791
			c0.092,0.626,0.24,0.735,1.36,1.012c0.198,0.048,0.415,0.087,0.645,0.114l0.002,0.001c0.009,0.001,0.016,0.001,0.022,0.003
			c0.306,0.035,0.63,0.053,0.963,0.053c0.849,0.016,1.107-0.101,1.283-0.265c0.154-0.139,0.277-0.369,0.277-0.508
			C29.877,30.253,29.605,30.108,28.55,30.082z"/>

			<linearGradient id="SVGID_10_" gradientUnits="userSpaceOnUse" x1="-1515.9087" y1="854.7412" x2="-1515.9087" y2="881.1494" gradientTransform="matrix(1 0 0 -1 1542 882)">
			<stop  offset="0.2637" style="stop-color:#E32B7D"/>
			<stop  offset="1" style="stop-color:#F0483D"/>
		</linearGradient>
		<path fill="url(#SVGID_10_)" d="M48.713,8.113c-0.147-0.147-0.876-0.168-6.471-0.168c-4.759,0-6.332-0.032-6.427-0.127
			c-0.169-0.169-0.159-0.581,0.011-0.686c0.063-0.042,1.836-0.106,3.915-0.137c3.463-0.053,3.8-0.074,3.905-0.232
			c0.085-0.137,0.085-0.243,0-0.37c-0.105-0.179-0.518-0.19-5.468-0.243c-4.601-0.042-5.36-0.074-5.446-0.211
			c-0.147-0.222-0.125-0.327,0.074-0.549c0.159-0.179,0.401-0.19,3.198-0.19c3.272,0,3.325-0.011,3.251-0.548
			c-0.031-0.243-0.031-0.243-2.216-0.296c-1.879-0.042-2.216-0.074-2.365-0.232c-0.157-0.148-0.168-0.232-0.063-0.453l0.126-0.264
			h2.902c1.806,0,2.997-0.042,3.125-0.106c0.221-0.127,0.264-0.528,0.074-0.717c-0.202-0.201-9.923-0.169-10.903,0.031
			c-0.649,0.139-1.149,0.319-1.624,0.614L27.4,2.781c-2.738-1.342-5.496-1.931-9.19-1.931c-3.713,0-7.262,0.625-11.232,1.985
			C4.624,3.645,4.404,3.773,4.404,4.325c0,0.257-0.258,5.147-0.552,10.864c-0.294,5.719-0.551,10.719-0.551,11.14v0.754l1.893-0.44
			c4.082-0.919,7.078-1.231,11.802-1.25c4.081,0,4.522,0.037,5.883,0.424c1.094,0.317,2.048,0.69,2.862,1.117l0.502,0.325h1.362
			c1.128,0,1.402-0.032,1.561-0.18c0.104-0.094,0.19-0.252,0.19-0.348c0-0.337-0.232-0.422-1.193-0.422
			c-1.033,0-1.34-0.104-1.34-0.453c0-0.466,0.148-0.497,2.143-0.497c1.098,0,1.964-0.042,2.088-0.105
			c0.234-0.126,0.266-0.548,0.065-0.728c-0.096-0.074-0.971-0.127-2.46-0.138l-2.311-0.031l-0.031-0.244
			c-0.085-0.548-0.117-0.548,4.4-0.548c4.412,0,4.443,0,4.443-0.474c0-0.455-0.104-0.477-3.166-0.477
			c-2.978,0-3.167-0.021-3.167-0.41c0-0.085,0.075-0.244,0.18-0.35c0.158-0.179,0.464-0.19,5.151-0.19
			c3.725,0,5.001-0.031,5.097-0.125c0.201-0.201,0.148-0.476-0.104-0.654c-0.201-0.148-1.141-0.171-7.663-0.171
			c-4.085,0-7.473-0.02-7.524-0.051c-0.138-0.096-0.116-0.519,0.031-0.666c0.095-0.094,1.794-0.127,6.986-0.127
			c6.227,0,6.87-0.021,7.05-0.179c0.233-0.211,0.242-0.392,0.021-0.602c-0.137-0.147-0.517-0.168-2.521-0.168
			c-2.047,0-2.363-0.021-2.416-0.171c-0.096-0.252-0.086-0.327,0.105-0.506c0.147-0.147,0.791-0.168,5.54-0.168
			c3.516,0,5.456-0.043,5.595-0.106c0.264-0.147,0.264-0.591,0-0.738c-0.139-0.074-3.123-0.105-8.95-0.105
			c-6.67,0-8.782-0.032-8.876-0.127c-0.169-0.168-0.158-0.581,0.011-0.687c0.063-0.042,3.683-0.105,8.031-0.137
			c7.378-0.053,7.916-0.063,8.021-0.232c0.085-0.137,0.085-0.243,0-0.369c-0.105-0.18-0.528-0.19-5.847-0.223
			c-4.021-0.01-5.774-0.063-5.879-0.136c-0.201-0.18-0.17-0.603,0.063-0.729c0.137-0.063,1.889-0.106,4.959-0.106
			c4.646,0,4.761,0,4.867-0.21c0.084-0.147,0.084-0.274,0-0.422c-0.117-0.211-0.222-0.211-9.764-0.211
			c-5.005,0-7.454-0.007-8.655-0.042l-2.76-0.014l-0.109-0.109c-0.06-0.059-0.154-0.127-0.214-0.15
			c-0.098-0.038-7.841-0.057-7.99-0.018c-0.097,0.025-0.432,0.382-0.555,0.596c-0.201,0.341-0.418,1.027-0.441,1.382
			c-0.002,0.062-0.014,0.205-0.018,0.318c-0.007,0.111-0.022,0.214-0.037,0.228c-0.013,0.014-0.009,0.022,0.004,0.022
			c0.019,0,0.036,0.113,0.04,0.253c0.029,0.721,0.347,1.553,0.752,1.962c0.077,0.077,0.18,0.157,0.228,0.182
			c0.1,0.046,7.834,0.06,7.982,0.017c0.052-0.017,0.148-0.084,0.214-0.15l0.123-0.122l1.371-0.003c0.754,0,1.38,0.007,1.39,0.016
			c0.026,0.027-0.314,0.746-0.498,1.049c-0.144,0.234-0.224,0.327-0.606,0.713c-0.42,0.42-0.456,0.453-0.72,0.595
			c-0.335,0.18-0.721,0.312-1.022,0.347c-0.28,0.036-8.207,0.042-8.436,0.008c-0.442-0.064-0.901-0.256-1.301-0.537
			c-0.123-0.086-0.339-0.271-0.475-0.412c-1.212-1.233-1.735-3.357-1.316-5.358c0.409-1.96,1.646-3.365,3.134-3.551
			c0.322-0.041,8.303-0.027,8.517,0.019c0.264,0.05,0.628,0.19,0.93,0.352c0.243,0.129,0.3,0.177,0.666,0.539
			c0.308,0.302,0.437,0.45,0.553,0.63c0.06,0.093,0.134,0.219,0.208,0.356c1.193-0.054,4.208-0.064,11.829-0.064
			c9.521,0,12.454-0.032,12.55-0.126c0.073-0.074,0.127-0.222,0.127-0.348c0-0.127-0.054-0.275-0.127-0.348
			c-0.096-0.096-2.438-0.127-9.9-0.127s-9.806-0.031-9.899-0.126c-0.17-0.169-0.158-0.581,0.011-0.686
			c0.063-0.042,3.683-0.106,8.031-0.138c7.377-0.052,7.915-0.063,8.021-0.233c0.084-0.136,0.084-0.242,0-0.368
			c-0.106-0.18-0.519-0.19-5.689-0.222c-5.003-0.021-5.593-0.042-5.772-0.2c-0.231-0.212-0.243-0.391-0.021-0.602
			c0.147-0.148,1.088-0.169,8.803-0.169c7.714,0,8.654-0.021,8.802-0.169c0.095-0.084,0.169-0.233,0.169-0.306
			C48.883,8.346,48.808,8.199,48.713,8.113z M27.076,22.046c0.085-0.35,0.443-0.454,0.708-0.211c0.253,0.221,0.253,0.38,0.011,0.601
			C27.414,22.784,26.95,22.531,27.076,22.046z M25.693,25.423c0.413-0.254,0.835,0.464,0.433,0.75
			c-0.104,0.073-0.221,0.137-0.252,0.137c-0.032,0-0.148-0.063-0.255-0.137C25.39,26.004,25.431,25.592,25.693,25.423z
			 M30.749,18.499c0.084-0.57,0.771-0.527,0.771,0.053c0,0.2-0.074,0.316-0.231,0.38C30.981,19.037,30.696,18.815,30.749,18.499z
			 M21.298,17.414c-2.898-0.002-3.067-0.007-3.237-0.087c-0.13-0.061-0.229-0.132-0.353-0.261c-0.202-0.212-0.212-0.227-0.339-0.502
			c-0.129-0.28-0.188-0.594-0.174-0.939c0.023-0.762,0.36-1.358,0.901-1.593c0.175-0.081,0.366-0.085,3.294-0.085l3.111-0.004
			l0.047,0.106c0.031,0.057,0.055,0.177,0.06,0.264c0.012,0.189,0.034,0.216,0.323,0.386c0.116,0.07,0.212,0.134,0.214,0.146
			c-0.002,0.012-0.148,0.093-0.328,0.182c-0.18,0.084-0.324,0.167-0.325,0.178c0.001,0.021,0.508,0.527,0.629,0.626
			c0.046,0.04,0.051,0.061,0.013,0.09c-0.025,0.021-0.12,0.103-0.211,0.176l-0.166,0.134l0.055,0.155
			c0.026,0.086,0.038,0.169,0.02,0.188c-0.017,0.017-0.193,0.099-0.388,0.179c-0.199,0.085-0.362,0.159-0.362,0.167
			c0,0.009,0.086,0.087,0.191,0.169c0.104,0.081,0.19,0.163,0.194,0.177c0.006,0.019-0.02,0.058-0.054,0.092
			C24.36,17.407,23.834,17.416,21.298,17.414z M29.547,9.56c-0.181,0.349-0.823,0.158-0.823-0.243c0-0.443,0.685-0.591,0.833-0.18
			C29.61,9.264,29.61,9.454,29.547,9.56z M31.192,5.982c-0.084,0.095-0.222,0.168-0.295,0.168c-0.159,0-0.485-0.337-0.485-0.506
			c0-0.159,0.306-0.443,0.475-0.443c0.19,0,0.476,0.285,0.476,0.475C31.362,5.75,31.288,5.897,31.192,5.982z"/>
	</g>
</g>
</svg>
