<?xml version="1.0" encoding="utf-8"?>
<!-- Generator: Adobe Illustrator 13.0.0, SVG Export Plug-In . SVG Version: 6.00 Build 14948)  -->
<!DOCTYPE svg PUBLIC "-//W3C//DTD SVG 1.0//EN" "http://www.w3.org/TR/2001/REC-SVG-20010904/DTD/svg10.dtd">
<svg version="1.0" id="Layer_1" xmlns="http://www.w3.org/2000/svg" xmlns:xlink="http://www.w3.org/1999/xlink" x="0px" y="0px"
	 width="80px" height="50px" viewBox="0 0 80 50" enable-background="new 0 0 80 50" xml:space="preserve">
<g id="Bible_1_Link">
	<path fill="none" d="M40.184,27.012c-0.006-0.022-0.146-0.154-0.312-0.284c-0.168-0.131-0.306-0.256-0.306-0.271
		c0-0.012,0.261-0.131,0.579-0.268c0.312-0.128,0.595-0.259,0.621-0.285c0.03-0.028,0.012-0.161-0.031-0.299l-0.087-0.251
		l0.266-0.214c0.146-0.118,0.297-0.247,0.339-0.279c0.061-0.049,0.052-0.082-0.022-0.146c-0.192-0.158-1.004-0.97-1.007-1.003
		c0.003-0.018,0.234-0.151,0.522-0.285c0.287-0.142,0.521-0.272,0.525-0.291c-0.003-0.018-0.157-0.12-0.343-0.232
		c-0.463-0.274-0.498-0.316-0.518-0.619c-0.007-0.139-0.044-0.332-0.095-0.422l-0.075-0.171L35.257,21.7
		c-4.689,0-4.997,0.005-5.276,0.134c-0.868,0.377-1.406,1.332-1.444,2.552c-0.023,0.553,0.071,1.056,0.279,1.504
		c0.204,0.441,0.218,0.465,0.542,0.805c0.199,0.205,0.356,0.32,0.564,0.418c0.272,0.128,0.542,0.136,5.185,0.139
		c4.062,0.003,4.903-0.011,4.989-0.094C40.152,27.104,40.191,27.041,40.184,27.012z"/>
	<path fill="none" d="M51.109,29.683c0.251-0.102,0.371-0.288,0.371-0.607c0-0.931-1.101-0.999-1.235-0.086
		C50.161,29.496,50.617,29.853,51.109,29.683z"/>
	<path fill="none" d="M42.029,41.28c0.171,0.117,0.357,0.22,0.409,0.22c0.05,0,0.235-0.103,0.403-0.22
		c0.643-0.458-0.032-1.607-0.693-1.201C41.728,40.351,41.662,41.01,42.029,41.28z"/>
	<path fill="none" d="M-4.959-20.875v90.542h90.542v-90.542H-4.959z M75.585,9.211c0.457,0,0.845,0.66,0.643,1.049
		c-0.186,0.338-0.826,0.405-1.131,0.102C74.672,9.939,74.992,9.211,75.585,9.211z M69.043,3.364
		c0.606,0.151,0.744,0.761,0.271,1.148c-0.457,0.374-0.574,0.374-0.911,0.035C67.826,3.989,68.266,3.161,69.043,3.364z
		 M48.404,49.334c-0.281,0.263-0.695,0.449-2.055,0.424c-0.534,0-1.053-0.028-1.543-0.085c-0.011-0.003-0.021-0.003-0.036-0.005
		l-0.003-0.002c-0.367-0.042-0.714-0.105-1.031-0.182c-1.795-0.445-2.032-0.618-2.179-1.62c-0.06-0.563-0.411-0.825-1.678-1.268
		c-3.475-1.178-5.95-1.501-10.778-1.53c-6.565,0-12.484,0.706-23.349,2.798c-2.649,0.5-4.857,0.854-4.975,0.763
		c-0.149-0.176,1.293-31.062,1.529-32.739c0.119-0.766,0.384-0.972,1.768-1.532l1.619-0.619l-0.029,1.355
		c0,0.765-0.441,7.919-0.942,15.899C4.192,38.94,3.781,45.479,3.781,45.479c0.029,0,1.207-0.267,2.649-0.562
		c7.625-1.679,16.252-2.679,22.583-2.679c6.892,0,11.542,1.297,14.75,4.063c1.113,0.976,1.551,1.204,2.463,1.231
		c0.107,0,0.212,0.002,0.311,0.004c0.063,0,0.125,0,0.186-0.004v0.008c1.692,0.042,2.126,0.273,2.126,0.979
		C48.849,48.742,48.651,49.111,48.404,49.334z M51.464,49.795c-0.159,0-0.475-0.16-0.657-0.363
		c-0.206-0.183-0.363-0.478-0.363-0.637c0-0.34,0.724-1.045,1.067-1.045c0.294,0,0.975,0.75,0.975,1.092
		C52.485,49.181,51.829,49.795,51.464,49.795z M53.34,39.979c-0.118,0-0.355-0.12-0.491-0.271c-0.151-0.135-0.27-0.356-0.27-0.473
		c0-0.255,0.541-0.779,0.795-0.779c0.219,0,0.726,0.558,0.726,0.811C54.1,39.522,53.61,39.979,53.34,39.979z M66.151,33.995
		c-0.406,0.304-0.506,0.288-0.912-0.118c-0.304-0.307-0.318-0.389-0.099-0.711c0.286-0.44,0.722-0.559,1.046-0.288
		C66.524,33.166,66.508,33.723,66.151,33.995z M75.401,28.315c-0.153,0-0.356-0.086-0.476-0.206
		c-0.575-0.574,0.101-1.52,0.813-1.146C76.33,27.283,76.074,28.315,75.401,28.315z M79.017,13.337
		c-0.235,0.236-1.742,0.27-14.096,0.27c-12.357,0-13.863,0.033-14.1,0.271c-0.356,0.338-0.336,0.625,0.034,0.963
		c0.288,0.255,1.232,0.288,9.245,0.322c8.283,0.049,8.943,0.067,9.113,0.354c0.134,0.203,0.134,0.372,0,0.592
		c-0.171,0.271-1.031,0.288-12.847,0.371c-6.966,0.05-12.765,0.153-12.863,0.22c-0.271,0.169-0.289,0.828-0.02,1.1
		c0.152,0.151,3.905,0.201,15.856,0.201s15.704,0.052,15.856,0.204c0.118,0.118,0.204,0.356,0.204,0.558
		c0,0.203-0.086,0.439-0.204,0.557c-0.152,0.153-4.852,0.205-20.1,0.205c-12.206,0-17.035,0.016-18.946,0.101
		c-0.12-0.219-0.236-0.421-0.334-0.571c-0.186-0.288-0.392-0.523-0.884-1.008c-0.587-0.58-0.678-0.656-1.067-0.863
		c-0.483-0.26-1.066-0.484-1.489-0.564c-0.342-0.073-13.125-0.095-13.64-0.029c-2.382,0.297-4.364,2.548-5.02,5.688
		c-0.67,3.204,0.167,6.606,2.108,8.582c0.218,0.228,0.565,0.522,0.761,0.66c0.642,0.452,1.376,0.757,2.084,0.86
		c0.366,0.055,13.062,0.045,13.51-0.013c0.484-0.057,1.102-0.267,1.638-0.556c0.422-0.227,0.479-0.28,1.152-0.952
		c0.613-0.617,0.742-0.767,0.972-1.142c0.294-0.484,0.839-1.637,0.797-1.681c-0.016-0.012-1.018-0.024-2.225-0.024l-2.197,0.006
		l-0.196,0.193c-0.105,0.106-0.261,0.216-0.344,0.243c-0.237,0.068-12.624,0.045-12.785-0.027c-0.076-0.039-0.241-0.167-0.364-0.291
		c-0.648-0.655-1.158-1.988-1.204-3.143c-0.005-0.224-0.034-0.406-0.063-0.406c-0.021,0-0.028-0.014-0.007-0.036
		c0.022-0.022,0.048-0.186,0.058-0.364c0.007-0.182,0.026-0.412,0.03-0.511c0.036-0.567,0.384-1.667,0.706-2.212
		c0.198-0.341,0.733-0.914,0.889-0.955c0.238-0.062,12.64-0.033,12.796,0.029c0.096,0.037,0.247,0.146,0.343,0.24l0.175,0.176
		l4.42,0.021c1.924,0.056,5.847,0.067,13.861,0.067c15.283,0,15.451,0,15.639,0.338c0.135,0.237,0.135,0.44,0,0.676
		c-0.17,0.339-0.355,0.339-7.795,0.339c-4.918,0-7.724,0.067-7.941,0.168c-0.374,0.201-0.425,0.879-0.104,1.167
		c0.168,0.118,2.976,0.203,9.416,0.217c8.518,0.054,9.195,0.069,9.365,0.357c0.137,0.202,0.137,0.372,0,0.591
		c-0.17,0.271-1.031,0.288-12.847,0.373c-6.966,0.05-12.765,0.152-12.863,0.218c-0.271,0.169-0.289,0.831-0.02,1.099
		c0.153,0.152,3.534,0.204,14.217,0.204c9.333,0,14.112,0.05,14.336,0.169c0.422,0.236,0.422,0.945,0,1.182
		c-0.224,0.103-3.331,0.172-8.961,0.172c-7.607,0-8.638,0.031-8.874,0.27c-0.307,0.286-0.321,0.404-0.169,0.809
		c0.085,0.24,0.592,0.274,3.871,0.274c3.21,0,3.818,0.033,4.04,0.269c0.353,0.339,0.339,0.626-0.036,0.964
		c-0.287,0.253-1.318,0.286-11.291,0.286c-8.315,0-11.037,0.053-11.188,0.203c-0.236,0.236-0.271,0.913-0.05,1.066
		c0.083,0.051,5.508,0.082,12.051,0.082c10.445,0,11.951,0.036,12.272,0.273c0.405,0.285,0.49,0.725,0.168,1.048
		c-0.152,0.151-2.197,0.201-8.162,0.201c-7.508,0-7.998,0.018-8.252,0.306c-0.167,0.168-0.287,0.423-0.287,0.559
		c0,0.624,0.305,0.656,5.072,0.656c4.903,0,5.071,0.035,5.071,0.764c0,0.759-0.051,0.759-7.117,0.759c-7.235,0-7.184,0-7.046,0.877
		l0.049,0.391l3.7,0.051c2.385,0.017,3.787,0.101,3.94,0.221c0.32,0.288,0.271,0.963-0.105,1.166
		c-0.197,0.101-1.586,0.169-3.344,0.169c-3.194,0-3.433,0.049-3.433,0.795c0,0.558,0.492,0.728,2.146,0.728
		c1.54,0,1.912,0.136,1.912,0.675c0,0.152-0.138,0.407-0.306,0.556c-0.254,0.236-0.692,0.288-2.5,0.288h-2.181l-0.805-0.521
		c-1.305-0.684-2.833-1.28-4.584-1.788c-2.179-0.619-2.886-0.681-9.422-0.681c-7.567,0.031-12.366,0.531-18.903,2.004l-3.032,0.706
		v-1.208c0-0.674,0.411-8.684,0.883-17.843C7.637,14.532,8.05,6.7,8.05,6.289c0-0.884,0.353-1.089,4.122-2.386
		c6.36-2.178,12.043-3.18,17.991-3.18c5.917,0,10.334,0.943,14.72,3.093l1.46,0.716c0.761-0.471,1.562-0.761,2.602-0.983
		c1.569-0.32,17.14-0.371,17.463-0.049c0.305,0.303,0.234,0.946-0.119,1.149c-0.204,0.102-2.113,0.17-5.005,0.17h-4.647
		l-0.202,0.422c-0.169,0.354-0.151,0.489,0.1,0.727c0.24,0.252,0.779,0.304,3.787,0.371c3.502,0.084,3.502,0.084,3.55,0.474
		c0.119,0.862,0.034,0.878-5.207,0.878c-4.479,0-4.867,0.018-5.122,0.305c-0.319,0.354-0.354,0.523-0.119,0.879
		c0.138,0.219,1.354,0.271,8.723,0.337c7.929,0.084,8.588,0.103,8.757,0.39c0.137,0.203,0.137,0.372,0,0.592
		c-0.169,0.253-0.708,0.288-6.254,0.372c-3.329,0.05-6.17,0.152-6.271,0.22c-0.271,0.169-0.287,0.828-0.017,1.098
		c0.151,0.153,2.672,0.204,10.293,0.204c8.961,0,10.128,0.034,10.363,0.269c0.153,0.137,0.273,0.373,0.273,0.491
		C79.29,12.964,79.17,13.203,79.017,13.337z M71.918,16.108c-0.272,0.441-1.014,0.475-1.254,0.052
		c-0.271-0.523,0.068-1.063,0.628-0.997C71.867,15.23,72.17,15.704,71.918,16.108z M69.381,22.025
		c-0.27,0.44-1.015,0.474-1.251,0.051c-0.271-0.524,0.07-1.065,0.627-0.996C69.331,21.146,69.637,21.62,69.381,22.025z"/>
	<path fill="none" d="M45.514,35.295c0.389-0.354,0.389-0.609-0.017-0.963c-0.425-0.389-0.998-0.222-1.135,0.339
		C44.161,35.448,44.903,35.854,45.514,35.295z"/>
	<path fill="none" d="M47.002,14.283c0,0.642,1.029,0.947,1.318,0.389c0.103-0.168,0.103-0.473,0.016-0.675
		C48.098,13.337,47.002,13.573,47.002,14.283z"/>
	<path fill="none" d="M50.465,7.69c-0.27,0-0.759,0.456-0.759,0.71c0,0.271,0.521,0.811,0.776,0.811c0.118,0,0.34-0.118,0.473-0.27
		c0.154-0.135,0.272-0.372,0.272-0.491C51.228,8.146,50.771,7.69,50.465,7.69z"/>
	<g id="Dots">
		
			<linearGradient id="SVGID_1_" gradientUnits="userSpaceOnUse" x1="-1490.5356" y1="850.2051" x2="-1490.5356" y2="852.25" gradientTransform="matrix(1 0 0 -1 1542 900)">
			<stop  offset="1" style="stop-color:#E32B7D"/>
			<stop  offset="1" style="stop-color:#F0483D"/>
		</linearGradient>
		<path fill="url(#SVGID_1_)" d="M51.511,47.75c-0.344,0-1.067,0.705-1.067,1.045c0,0.159,0.157,0.454,0.363,0.637
			c0.183,0.203,0.498,0.363,0.657,0.363c0.365,0,1.021-0.614,1.021-0.953C52.485,48.5,51.805,47.75,51.511,47.75z"/>
		
			<linearGradient id="SVGID_2_" gradientUnits="userSpaceOnUse" x1="-1466.4077" y1="856.959" x2="-1466.4077" y2="899.2819" gradientTransform="matrix(1 0 0 -1 1542 900)">
			<stop  offset="0.2637" style="stop-color:#E32B7D"/>
			<stop  offset="1" style="stop-color:#F0483D"/>
		</linearGradient>
		<path fill="url(#SVGID_2_)" d="M75.585,9.211c-0.593,0-0.913,0.728-0.488,1.151c0.305,0.304,0.945,0.236,1.131-0.102
			C76.43,9.871,76.042,9.211,75.585,9.211z"/>
		
			<linearGradient id="SVGID_3_" gradientUnits="userSpaceOnUse" x1="-1470.7114" y1="856.9775" x2="-1470.7114" y2="899.2758" gradientTransform="matrix(1 0 0 -1 1542 900)">
			<stop  offset="0.2637" style="stop-color:#E32B7D"/>
			<stop  offset="1" style="stop-color:#F0483D"/>
		</linearGradient>
		<path fill="url(#SVGID_3_)" d="M71.292,15.163c-0.56-0.066-0.896,0.474-0.627,0.997c0.239,0.423,0.98,0.389,1.253-0.052
			C72.17,15.704,71.867,15.23,71.292,15.163z"/>
		
			<linearGradient id="SVGID_4_" gradientUnits="userSpaceOnUse" x1="-1473.1313" y1="856.9805" x2="-1473.1313" y2="899.2748" gradientTransform="matrix(1 0 0 -1 1542 900)">
			<stop  offset="0.2637" style="stop-color:#E32B7D"/>
			<stop  offset="1" style="stop-color:#F0483D"/>
		</linearGradient>
		<path fill="url(#SVGID_4_)" d="M69.043,3.364c-0.777-0.203-1.217,0.625-0.641,1.183c0.337,0.338,0.454,0.338,0.911-0.035
			C69.787,4.125,69.649,3.515,69.043,3.364z"/>
		
			<linearGradient id="SVGID_5_" gradientUnits="userSpaceOnUse" x1="-1473.2466" y1="856.9932" x2="-1473.2466" y2="899.2606" gradientTransform="matrix(1 0 0 -1 1542 900)">
			<stop  offset="0.2637" style="stop-color:#E32B7D"/>
			<stop  offset="1" style="stop-color:#F0483D"/>
		</linearGradient>
		<path fill="url(#SVGID_5_)" d="M68.757,21.08c-0.557-0.069-0.898,0.472-0.627,0.996c0.236,0.423,0.981,0.389,1.251-0.051
			C69.637,21.62,69.331,21.146,68.757,21.08z"/>
		
			<linearGradient id="SVGID_6_" gradientUnits="userSpaceOnUse" x1="-1488.6606" y1="856.9766" x2="-1488.6606" y2="899.2968" gradientTransform="matrix(1 0 0 -1 1542 900)">
			<stop  offset="0.2637" style="stop-color:#E32B7D"/>
			<stop  offset="1" style="stop-color:#F0483D"/>
		</linearGradient>
		<path fill="url(#SVGID_6_)" d="M53.374,38.456c-0.254,0-0.795,0.524-0.795,0.779c0,0.116,0.118,0.338,0.27,0.473
			c0.136,0.151,0.373,0.271,0.491,0.271c0.271,0,0.76-0.456,0.76-0.712C54.1,39.014,53.593,38.456,53.374,38.456z"/>
		
			<linearGradient id="SVGID_7_" gradientUnits="userSpaceOnUse" x1="-1476.2896" y1="856.9629" x2="-1476.2896" y2="899.3304" gradientTransform="matrix(1 0 0 -1 1542 900)">
			<stop  offset="0.2637" style="stop-color:#E32B7D"/>
			<stop  offset="1" style="stop-color:#F0483D"/>
		</linearGradient>
		<path fill="url(#SVGID_7_)" d="M66.187,32.878c-0.324-0.271-0.76-0.152-1.046,0.288c-0.22,0.322-0.205,0.404,0.099,0.711
			c0.406,0.406,0.506,0.422,0.912,0.118C66.508,33.723,66.524,33.166,66.187,32.878z"/>
		
			<linearGradient id="SVGID_8_" gradientUnits="userSpaceOnUse" x1="-1466.6108" y1="856.9678" x2="-1466.6108" y2="899.2921" gradientTransform="matrix(1 0 0 -1 1542 900)">
			<stop  offset="0.2637" style="stop-color:#E32B7D"/>
			<stop  offset="1" style="stop-color:#F0483D"/>
		</linearGradient>
		<path fill="url(#SVGID_8_)" d="M75.738,26.963c-0.712-0.373-1.388,0.572-0.813,1.146c0.119,0.12,0.322,0.206,0.476,0.206
			C76.074,28.315,76.33,27.283,75.738,26.963z"/>
	</g>
	<g>
		<path fill="none" d="M42.029,41.28c0.171,0.117,0.357,0.22,0.409,0.22c0.05,0,0.235-0.103,0.403-0.22
			c0.643-0.458-0.032-1.607-0.693-1.201C41.728,40.351,41.662,41.01,42.029,41.28z"/>
		<path fill="none" d="M45.514,35.295c0.389-0.354,0.389-0.609-0.017-0.963c-0.425-0.389-0.998-0.222-1.135,0.339
			C44.161,35.448,44.903,35.854,45.514,35.295z"/>
		<path fill="none" d="M51.109,29.683c0.251-0.102,0.371-0.288,0.371-0.607c0-0.931-1.101-0.999-1.235-0.086
			C50.161,29.496,50.617,29.853,51.109,29.683z"/>
		<path fill="none" d="M50.465,7.69c-0.27,0-0.759,0.456-0.759,0.71c0,0.271,0.521,0.811,0.776,0.811c0.118,0,0.34-0.118,0.473-0.27
			c0.154-0.135,0.272-0.372,0.272-0.491C51.228,8.146,50.771,7.69,50.465,7.69z"/>
		<path fill="none" d="M40.184,27.012c-0.006-0.022-0.146-0.154-0.312-0.284c-0.168-0.131-0.306-0.256-0.306-0.271
			c0-0.012,0.261-0.131,0.579-0.268c0.312-0.128,0.595-0.259,0.621-0.285c0.03-0.028,0.012-0.161-0.031-0.299l-0.087-0.251
			l0.266-0.214c0.146-0.118,0.297-0.247,0.339-0.279c0.061-0.049,0.052-0.082-0.022-0.146c-0.192-0.158-1.004-0.97-1.007-1.003
			c0.003-0.018,0.234-0.151,0.522-0.285c0.287-0.142,0.521-0.272,0.525-0.291c-0.003-0.018-0.157-0.12-0.343-0.232
			c-0.463-0.274-0.498-0.316-0.518-0.619c-0.007-0.139-0.044-0.332-0.095-0.422l-0.075-0.171L35.257,21.7
			c-4.689,0-4.997,0.005-5.276,0.134c-0.868,0.377-1.406,1.332-1.444,2.552c-0.023,0.553,0.071,1.056,0.279,1.504
			c0.204,0.441,0.218,0.465,0.542,0.805c0.199,0.205,0.356,0.32,0.564,0.418c0.272,0.128,0.542,0.136,5.185,0.139
			c4.062,0.003,4.903-0.011,4.989-0.094C40.152,27.104,40.191,27.041,40.184,27.012z"/>
		<path fill="none" d="M47.002,14.283c0,0.642,1.029,0.947,1.318,0.389c0.103-0.168,0.103-0.473,0.016-0.675
			C48.098,13.337,47.002,13.573,47.002,14.283z"/>
		
			<linearGradient id="SVGID_9_" gradientUnits="userSpaceOnUse" x1="-1517.1919" y1="850.2402" x2="-1517.1919" y2="886.2617" gradientTransform="matrix(1 0 0 -1 1542 900)">
			<stop  offset="0.5659" style="stop-color:#E32B7D"/>
			<stop  offset="1" style="stop-color:#EB3D54"/>
		</linearGradient>
		<path fill="url(#SVGID_9_)" d="M46.723,47.541v-0.008c-0.061,0.004-0.122,0.004-0.186,0.005c-0.099-0.003-0.203-0.003-0.311-0.005
			c-0.912-0.027-1.349-0.256-2.463-1.23c-3.208-2.767-7.859-4.063-14.75-4.063c-6.33,0-14.958,1-22.583,2.679
			c-1.443,0.295-2.621,0.562-2.649,0.562c0,0,0.411-6.539,0.942-14.488c0.501-7.978,0.942-15.134,0.942-15.898l0.029-1.354
			l-1.619,0.618c-1.384,0.56-1.648,0.766-1.768,1.532c-0.236,1.677-1.678,32.566-1.529,32.739c0.118,0.092,2.325-0.263,4.975-0.763
			c10.864-2.092,16.784-2.798,23.349-2.798c4.83,0.029,7.303,0.354,10.778,1.53c1.267,0.442,1.618,0.705,1.678,1.268
			c0.146,1.002,0.384,1.178,2.179,1.62c0.317,0.076,0.664,0.14,1.031,0.182l0.003,0.002c0.015,0.002,0.025,0.002,0.036,0.005
			c0.49,0.057,1.009,0.085,1.543,0.085c1.359,0.025,1.773-0.161,2.055-0.424c0.247-0.223,0.444-0.592,0.444-0.813
			C48.849,47.814,48.415,47.583,46.723,47.541z"/>
		
			<linearGradient id="SVGID_10_" gradientUnits="userSpaceOnUse" x1="-1499.2144" y1="856.9805" x2="-1499.2144" y2="899.2764" gradientTransform="matrix(1 0 0 -1 1542 900)">
			<stop  offset="0.2637" style="stop-color:#E32B7D"/>
			<stop  offset="1" style="stop-color:#F0483D"/>
		</linearGradient>
		<path fill="url(#SVGID_10_)" d="M79.017,12.355c-0.235-0.235-1.402-0.269-10.363-0.269c-7.621,0-10.142-0.051-10.293-0.204
			c-0.271-0.27-0.255-0.929,0.017-1.098c0.101-0.068,2.941-0.17,6.271-0.22c5.546-0.084,6.085-0.119,6.254-0.372
			c0.137-0.22,0.137-0.389,0-0.592c-0.169-0.287-0.828-0.305-8.757-0.39c-7.368-0.066-8.585-0.118-8.723-0.337
			c-0.235-0.355-0.2-0.524,0.119-0.879c0.255-0.287,0.643-0.305,5.122-0.305c5.241,0,5.326-0.017,5.207-0.878
			c-0.049-0.39-0.049-0.39-3.55-0.474c-3.008-0.067-3.547-0.119-3.787-0.372c-0.251-0.237-0.269-0.371-0.1-0.726l0.202-0.422h4.647
			c2.892,0,4.801-0.068,5.005-0.17c0.354-0.204,0.424-0.846,0.119-1.149c-0.323-0.322-15.894-0.271-17.463,0.049
			c-1.04,0.223-1.841,0.512-2.602,0.983l-1.46-0.716c-4.386-2.15-8.803-3.093-14.72-3.093c-5.947,0-11.63,1.002-17.991,3.18
			C8.403,5.198,8.05,5.405,8.05,6.289c0,0.412-0.413,8.243-0.883,17.4c-0.472,9.159-0.883,17.169-0.883,17.843v1.208l3.032-0.706
			c6.537-1.473,11.335-1.973,18.903-2.004c6.536,0,7.243,0.061,9.422,0.681c1.751,0.508,3.279,1.104,4.584,1.788l0.805,0.521h2.181
			c1.808,0,2.246-0.052,2.5-0.288c0.168-0.149,0.306-0.403,0.306-0.556c0-0.539-0.372-0.676-1.912-0.676
			c-1.654,0-2.146-0.169-2.146-0.727c0-0.746,0.238-0.795,3.433-0.795c1.758,0,3.146-0.068,3.344-0.169
			c0.376-0.203,0.426-0.878,0.105-1.166c-0.153-0.12-1.556-0.204-3.94-0.221l-3.7-0.051l-0.051-0.391
			c-0.136-0.877-0.188-0.877,7.048-0.877c7.066,0,7.117,0,7.117-0.759c0-0.729-0.168-0.764-5.071-0.764
			c-4.768,0-5.072-0.032-5.072-0.656c0-0.136,0.12-0.391,0.287-0.56c0.254-0.287,0.744-0.306,8.252-0.306
			c5.965,0,8.01-0.051,8.162-0.2c0.322-0.323,0.237-0.763-0.168-1.048c-0.321-0.237-1.827-0.273-12.272-0.273
			c-6.543,0-11.969-0.031-12.051-0.082c-0.221-0.153-0.186-0.83,0.05-1.066c0.152-0.15,2.873-0.203,11.188-0.203
			c9.973,0,11.004-0.033,11.291-0.286c0.375-0.338,0.389-0.628,0.033-0.964c-0.219-0.235-0.827-0.269-4.038-0.269
			c-3.278,0-3.785-0.034-3.87-0.274c-0.152-0.404-0.138-0.524,0.169-0.811c0.236-0.236,1.267-0.269,8.874-0.269
			c5.63,0,8.737-0.068,8.961-0.171c0.422-0.236,0.422-0.945,0-1.182c-0.224-0.119-5.003-0.169-14.336-0.169
			c-10.683,0-14.064-0.052-14.217-0.204c-0.27-0.269-0.252-0.93,0.02-1.099c0.099-0.067,5.897-0.168,12.863-0.218
			c11.815-0.085,12.677-0.102,12.847-0.373c0.137-0.219,0.137-0.389,0-0.591c-0.17-0.288-0.848-0.305-9.365-0.357
			c-6.44-0.015-9.248-0.1-9.416-0.217c-0.321-0.288-0.271-0.966,0.104-1.167c0.218-0.102,3.023-0.17,7.941-0.17
			c7.439,0,7.625,0,7.795-0.337c0.135-0.236,0.135-0.44,0-0.676c-0.188-0.339-0.355-0.339-15.639-0.339
			c-8.014,0-11.937-0.011-13.861-0.066l-4.42-0.021l-0.175-0.176c-0.096-0.094-0.247-0.204-0.343-0.24
			c-0.156-0.062-12.558-0.091-12.796-0.029c-0.155,0.042-0.691,0.612-0.889,0.955c-0.321,0.545-0.669,1.645-0.706,2.212
			c-0.003,0.099-0.022,0.329-0.029,0.511c-0.011,0.178-0.036,0.342-0.058,0.364c-0.021,0.022-0.015,0.036,0.007,0.036
			c0.03,0,0.058,0.182,0.063,0.406c0.046,1.154,0.556,2.487,1.204,3.143c0.124,0.124,0.288,0.252,0.364,0.291
			c0.161,0.072,12.548,0.096,12.785,0.025c0.083-0.025,0.239-0.135,0.343-0.241l0.197-0.193l2.197-0.006
			c1.207,0,2.209,0.012,2.225,0.024c0.042,0.044-0.503,1.196-0.797,1.681c-0.23,0.375-0.359,0.524-0.972,1.142
			c-0.673,0.672-0.73,0.726-1.152,0.952c-0.537,0.289-1.154,0.499-1.638,0.556c-0.448,0.058-13.144,0.067-13.51,0.013
			c-0.708-0.104-1.443-0.409-2.084-0.86c-0.196-0.138-0.543-0.433-0.761-0.66c-1.941-1.976-2.778-5.378-2.108-8.582
			c0.656-3.139,2.638-5.39,5.02-5.688c0.516-0.065,13.298-0.044,13.64,0.029c0.423,0.08,1.005,0.304,1.489,0.564
			c0.39,0.207,0.48,0.283,1.067,0.862c0.492,0.485,0.698,0.721,0.884,1.009c0.096,0.15,0.214,0.352,0.334,0.571
			c1.911-0.086,6.74-0.103,18.946-0.103c15.248,0,19.947-0.05,20.1-0.203c0.118-0.118,0.204-0.354,0.204-0.557
			c0-0.203-0.086-0.441-0.204-0.558c-0.152-0.154-3.905-0.204-15.856-0.204s-15.704-0.05-15.856-0.201
			c-0.271-0.271-0.252-0.931,0.02-1.1c0.099-0.067,5.897-0.17,12.863-0.22c11.814-0.083,12.676-0.101,12.847-0.373
			c0.134-0.218,0.134-0.387,0-0.59c-0.171-0.288-0.832-0.305-9.113-0.355c-8.013-0.033-8.957-0.066-9.245-0.321
			c-0.37-0.339-0.391-0.625-0.034-0.963c0.236-0.238,1.742-0.271,14.1-0.271c12.354,0,13.86-0.034,14.096-0.271
			c0.153-0.134,0.271-0.373,0.271-0.49C79.29,12.728,79.17,12.492,79.017,12.355z M44.362,34.671
			c0.137-0.561,0.71-0.728,1.135-0.339c0.405,0.354,0.405,0.609,0.017,0.963C44.903,35.854,44.161,35.448,44.362,34.671z
			 M42.148,40.079c0.661-0.406,1.336,0.743,0.693,1.201c-0.168,0.117-0.354,0.22-0.403,0.22c-0.052,0-0.238-0.103-0.409-0.22
			C41.662,41.01,41.728,40.351,42.148,40.079z M50.245,28.989c0.135-0.913,1.235-0.845,1.235,0.086c0,0.319-0.12,0.506-0.371,0.607
			C50.617,29.853,50.161,29.496,50.245,28.989z M35.108,27.252c-4.643-0.003-4.913-0.011-5.185-0.139
			c-0.208-0.098-0.366-0.213-0.564-0.418c-0.324-0.34-0.339-0.363-0.542-0.805c-0.208-0.448-0.302-0.951-0.279-1.504
			c0.038-1.22,0.577-2.175,1.444-2.552c0.279-0.129,0.586-0.136,5.276-0.136l4.983-0.006l0.075,0.171
			c0.051,0.09,0.088,0.283,0.095,0.422c0.02,0.303,0.055,0.345,0.518,0.619c0.188,0.112,0.34,0.214,0.343,0.232
			c-0.003,0.019-0.238,0.149-0.525,0.291c-0.288,0.134-0.519,0.267-0.52,0.285c0.001,0.033,0.813,0.845,1.005,1.003
			c0.074,0.064,0.083,0.097,0.022,0.144c-0.042,0.035-0.193,0.164-0.339,0.281l-0.266,0.214l0.087,0.249
			c0.043,0.139,0.062,0.271,0.031,0.301c-0.026,0.026-0.31,0.157-0.621,0.285c-0.318,0.137-0.579,0.256-0.579,0.268
			c0,0.015,0.138,0.14,0.306,0.271c0.167,0.13,0.306,0.262,0.312,0.284c0.009,0.029-0.032,0.092-0.087,0.146
			C40.013,27.241,39.17,27.255,35.108,27.252z M48.32,14.672c-0.289,0.559-1.318,0.253-1.318-0.389c0-0.71,1.096-0.946,1.334-0.288
			C48.423,14.199,48.423,14.502,48.32,14.672z M50.955,8.942c-0.134,0.151-0.354,0.27-0.473,0.27c-0.255,0-0.776-0.539-0.776-0.811
			c0-0.254,0.489-0.71,0.759-0.71c0.307,0,0.763,0.456,0.763,0.761C51.228,8.57,51.109,8.807,50.955,8.942z"/>
	</g>
</g>
</svg>
